# xmcd
#
# Track frame offsets: 
#        150
#        32664
#        53060
#        73679
#        108035
#        126312
#        149369
#
# Disc length: 2686 seconds
#
# Revision: 0
# Processed by: cddbd v1.5.2PL0 Copyright (c) Steve Scherf et al.
# Submitted via: ExactAudioCopy v1.0b4
#
DISCID=5f0a7c07
DTITLE=John Lee Hooker - Hooker N' Heat (DLP - LP2)
DYEAR=1970
DGENRE=Blues
TTITLE0=The World Today
TTITLE1=I Got My Eyes On You
TTITLE2=Whiskey And Wimmen
TTITLE3=Just You And Me
TTITLE4=Let' s Make It
TTITLE5=Peavine
TTITLE6=Boogie Chillen No 2
EXTD=
EXTT0=
EXTT1=
EXTT2=
EXTT3=
EXTT4=
EXTT5=
EXTT6=
PLAYORDER=
